# xmcd CD database file
#
# Track frame offsets:
#	150
#	18228
#	31410
#	48568
#	61420
#	74993
#	91948
#	109103
#	124910
#	138075
#	152878
#	168860
#
# Disc length: 2446 seconds
#
# Revision: 2
# Processed by: cddbd v1.5.2PL0 Copyright (c) Steve Scherf et al.
# Submitted via: NeoAudio 9.9.9
#
DISCID=a4098c0c
DTITLE=Crystal Gayle - Love Songs
DYEAR=1988
DGENRE=Country
TTITLE0=Half The Way
TTITLE1=I Just Can't Leave Your Love Alone
TTITLE2=Too Many Lovers
TTITLE3=Help Yourselves To Each Other
TTITLE4=Don't Go My Love
TTITLE5=Miss The Mississippi And You
TTITLE6=The Other Side Of Me
TTITLE7=You've Almost Got Me Believin'
TTITLE8=What A Little Moonlight Can Do
TTITLE9=The Blue Side
TTITLE10=It's Like We Never Said Goodbye
TTITLE11=If You Ever Change Your Mind
EXTD=YEAR: 1988
EXTT0=
EXTT1=
EXTT2=
EXTT3=
EXTT4=
EXTT5=
EXTT6=
EXTT7=
EXTT8=
EXTT9=
EXTT10=
EXTT11=
PLAYORDER=
